HIERARCHY
ROOT Hips
{
	OFFSET 0.000000 0.000000 0.000000
	CHANNELS 6 Xposition Yposition Zposition Zrotation Yrotation Xrotation 
	JOINT LHipJoint
	{
		OFFSET 0.000000 0.000000 0.000000
		CHANNELS 3 Zrotation Yrotation Xrotation
		JOINT LeftUpLeg
		{
			OFFSET 1.363060 -1.794630 0.839290
			CHANNELS 3 Zrotation Yrotation Xrotation
			JOINT LeftLeg
			{
				OFFSET 2.448110 -6.726130 0.000000
				CHANNELS 3 Zrotation Yrotation Xrotation
				JOINT LeftFoot
				{
					OFFSET 2.562200 -7.039590 0.000000
					CHANNELS 3 Zrotation Yrotation Xrotation
					JOINT LeftToeBase
					{
						OFFSET 0.157640 -0.433110 2.322550
						CHANNELS 3 Zrotation Yrotation Xrotation
						End Site
						{
							OFFSET 0.000000 0.000000 0.000000
						}
					}
				}
			}
		}
	}
	JOINT RHipJoint
	{
		OFFSET 0.000000 0.000000 0.000000
		CHANNELS 3 Zrotation Yrotation Xrotation
		JOINT RightUpLeg
		{
			OFFSET -1.305520 -1.794630 0.839290
			CHANNELS 3 Zrotation Yrotation Xrotation
			JOINT RightLeg
			{
				OFFSET -2.542530 -6.985550 0.000000
				CHANNELS 3 Zrotation Yrotation Xrotation
				JOINT RightFoot
				{
					OFFSET -2.568260 -7.056230 0.000000
					CHANNELS 3 Zrotation Yrotation Xrotation
					JOINT RightToeBase
					{
						OFFSET -0.164730 -0.452590 2.363150
						CHANNELS 3 Zrotation Yrotation Xrotation
						End Site
						{
							OFFSET 0.000000 0.000000 0.000000
						}
					}
				}
			}
		}
	}
	JOINT LowerBack
	{
		OFFSET 0.000000 0.000000 0.000000
		CHANNELS 3 Zrotation Yrotation Xrotation
		JOINT Spine
		{
			OFFSET 0.028270 2.035590 -0.193380
			CHANNELS 3 Zrotation Yrotation Xrotation
			JOINT Spine1
			{
				OFFSET 0.056720 2.048850 -0.042750
				CHANNELS 3 Zrotation Yrotation Xrotation
				JOINT Neck
				{
					OFFSET 0.000000 0.000000 0.000000
					CHANNELS 3 Zrotation Yrotation Xrotation
					JOINT Neck1
					{
						OFFSET -0.054170 1.746240 0.172020
						CHANNELS 3 Zrotation Yrotation Xrotation
						JOINT Head
						{
							OFFSET 0.104070 1.761360 -0.123970
							CHANNELS 3 Zrotation Yrotation Xrotation
							End Site
							{
								OFFSET 0.000000 0.000000 0.000000
							}
						}
					}
				}
				JOINT LeftShoulder
				{
					OFFSET 0.000000 0.000000 0.000000
					CHANNELS 3 Zrotation Yrotation Xrotation
					JOINT LeftArm
					{
						OFFSET 3.362410 1.200890 -0.311210
						CHANNELS 3 Zrotation Yrotation Xrotation
						JOINT LeftForeArm
						{
							OFFSET 4.983000 -0.000000 -0.000000
							CHANNELS 3 Zrotation Yrotation Xrotation
							JOINT LeftHand
							{
								OFFSET 3.483560 -0.000000 -0.000000
								CHANNELS 3 Zrotation Yrotation Xrotation
								JOINT LeftFingerBase
								{
									OFFSET 0.000000 0.000000 0.000000
									CHANNELS 3 Zrotation Yrotation Xrotation
									JOINT LeftHandIndex1
									{
										OFFSET 0.715260 -0.000000 -0.000000
										CHANNELS 3 Zrotation Yrotation Xrotation
										End Site
										{
											OFFSET 0.000000 0.000000 0.000000
										}
									}
								}
								JOINT LThumb
								{
									OFFSET 0.000000 0.000000 0.000000
									CHANNELS 3 Zrotation Yrotation Xrotation
									End Site
									{
										OFFSET 0.000000 0.000000 0.000000
									}
								}
							}
						}
					}
				}
				JOINT RightShoulder
				{
					OFFSET 0.000000 0.000000 0.000000
					CHANNELS 3 Zrotation Yrotation Xrotation
					JOINT RightArm
					{
						OFFSET -3.136600 1.374050 -0.404650
						CHANNELS 3 Zrotation Yrotation Xrotation
						JOINT RightForeArm
						{
							OFFSET -5.241900 -0.000000 -0.000000
							CHANNELS 3 Zrotation Yrotation Xrotation
							JOINT RightHand
							{
								OFFSET -3.444170 -0.000000 -0.000000
								CHANNELS 3 Zrotation Yrotation Xrotation
								JOINT RightFingerBase
								{
									OFFSET 0.000000 0.000000 0.000000
									CHANNELS 3 Zrotation Yrotation Xrotation
									JOINT RightHandIndex1
									{
										OFFSET -0.622530 -0.000000 -0.000000
										CHANNELS 3 Zrotation Yrotation Xrotation
										End Site
										{
											OFFSET 0.000000 0.000000 0.000000
										}
									}
								}
								JOINT RThumb
								{
									OFFSET 0.000000 0.000000 0.000000
									CHANNELS 3 Zrotation Yrotation Xrotation
									End Site
									{
										OFFSET 0.000000 0.000000 0.000000
									}
								}
							}
						}
					}
				}
			}
		}
	}
}
MOTION
Frames: 9
Frame Time: 0.008333
-18.678159 16.245042 -1.747185 27.830180 82.841699 59.834076 -13.003406 3.544741 -2.130176 -6.190934 7.613482 -6.729179 -1.037365 1.140550 19.122487 1.259056 6.304637 20.117657 2.376700 0.000000 -97.564500 7.914212 1.577774 4.162236 -2.082336 8.409012 -65.606232 1.422156 -1.668056 27.325700 0.188360 0.990113 5.461721 -0.438501 0.000000 -35.342101 9.496995 -2.493436 0.962691 1.342216 -2.909467 -2.504011 -5.538811 -3.031613 1.984970 7.788230 -4.617367 -0.149037 -3.682077 -0.329010 1.722010 0.000000 0.000000 0.000000 -10.492500 -0.983342 0.607533 -75.679371 -12.667324 27.411223 -2.371138 -32.129647 -0.006234 3.772960 -0.625827 -0.024805 -0.084804 0.129912 0.000000 0.000000 0.000000 0.000000 0.000000 0.000000 0.000000 14.374179 -7.836537 0.015161 58.352659 -11.381366 -19.235094 3.854746 16.488114 0.011315 1.148933 4.724568 0.042861 0.123806 -0.039740 -0.000000 0.000000 0.000000 0.000000 0.000000 0.000000 0.000000 
-18.513075 16.219870 -1.699290 22.012596 82.946391 54.240471 -12.991673 3.528839 -2.128653 -5.411905 7.661136 -6.840229 -0.951916 1.193539 19.712714 1.318217 6.010438 21.284597 2.288100 -0.000000 -97.388000 7.886980 1.642692 3.989509 -1.207514 8.990632 -66.377867 1.354603 -1.934133 30.112836 0.166728 1.137969 4.219869 -0.370800 -0.000000 -33.853900 10.187027 -2.405396 1.195376 1.460479 -2.831814 -2.471609 -5.614334 -2.958155 1.923982 7.964086 -4.078160 -0.037395 -3.726834 -0.331613 1.745713 0.000000 0.000000 0.000000 -10.730927 -1.042543 0.652216 -75.714881 -12.317876 26.310301 -2.315737 -31.593666 -0.006756 3.992408 -0.641327 -0.026744 -0.080551 0.128813 0.000000 0.000000 0.000000 0.000000 0.000000 0.000000 0.000000 14.705584 -7.345937 0.040096 57.789744 -10.582396 -19.128391 3.856161 15.854615 0.010801 0.972511 4.564025 0.034252 0.123848 -0.038002 -0.000000 0.000000 0.000000 0.000000 0.000000 0.000000 0.000000 
-18.352514 16.201887 -1.651421 16.241510 83.115260 48.648149 -12.959319 3.484295 -2.154200 -4.558086 7.750026 -6.994610 -0.865168 1.249278 20.427889 1.380186 5.611528 22.541793 2.141700 -0.000000 -96.492500 7.867748 1.698902 3.810382 -0.341555 9.574361 -66.855588 1.306373 -2.148738 32.548832 0.109617 1.144792 2.716659 -0.343601 0.000000 -32.387300 10.902641 -2.360797 1.470612 1.586440 -2.792120 -2.425109 -5.699438 -2.922865 1.874423 8.208556 -3.506767 0.118955 -3.775936 -0.334577 1.779938 0.000000 0.000000 0.000000 -10.872131 -1.148369 0.696774 -75.787067 -12.077768 25.191855 -2.261497 -30.897407 -0.007401 4.273109 -0.644613 -0.028684 -0.076745 0.127427 0.000000 0.000000 0.000000 0.000000 0.000000 0.000000 0.000000 15.107426 -6.870547 0.052480 57.225961 -9.611029 -19.099937 3.849737 15.183698 0.010235 0.754526 4.394550 0.024541 0.123724 -0.035997 -0.000000 0.000000 0.000000 0.000000 0.000000 0.000000 0.000000 
-18.196481 16.190984 -1.602908 10.751887 83.359348 43.293144 -12.912930 3.410449 -2.197063 -3.664289 7.846058 -7.201596 -0.778179 1.304065 21.268785 1.446615 5.164841 23.828593 1.957100 -0.000000 -94.754399 7.854266 1.740061 3.626580 0.492169 10.109770 -67.055473 1.280040 -2.316842 34.615785 0.020780 1.025049 1.044949 -0.342500 -0.000000 -31.015699 11.609396 -2.364340 1.769637 1.713813 -2.794551 -2.368122 -5.791010 -2.929781 1.838486 8.524762 -2.920200 0.319452 -3.828354 -0.337848 1.824861 0.000000 0.000000 0.000000 -10.901101 -1.311585 0.740526 -75.895990 -11.948169 24.094638 -2.209469 -30.046796 -0.008138 4.602826 -0.632337 -0.030425 -0.073424 0.125804 0.000000 0.000000 0.000000 0.000000 0.000000 0.000000 0.000000 15.580307 -6.429551 0.050862 56.675778 -8.487186 -19.165691 3.833918 14.503223 0.009642 0.490543 4.226437 0.013830 0.123403 -0.033834 -0.000000 0.000000 0.000000 0.000000 0.000000 0.000000 0.000000 
-18.045296 16.186833 -1.553182 5.744897 83.687752 38.379743 -12.859908 3.310857 -2.246637 -2.773023 7.916897 -7.473927 -0.693046 1.355668 22.235023 1.518345 4.749467 25.062345 1.769800 -0.000000 -92.083399 7.843947 1.764928 3.440215 1.268524 10.554160 -67.008142 1.273406 -2.443824 36.316234 -0.094898 0.796349 -0.694214 -0.352800 -0.000000 -29.796300 12.269434 -2.413624 2.071722 1.834916 -2.837088 -2.306665 -5.885439 -2.976772 1.810817 8.912111 -2.337687 0.568104 -3.883457 -0.341467 1.882140 0.000000 0.000000 0.000000 -10.799344 -1.589626 0.781878 -76.040566 -11.873178 22.992926 -2.157893 -29.086534 -0.008912 4.957572 -0.600572 -0.031267 -0.070275 0.123968 0.000000 0.000000 0.000000 0.000000 0.000000 0.000000 0.000000 16.120795 -6.043032 0.038138 56.153361 -7.238936 -19.320274 3.807253 13.841657 0.009061 0.170957 4.073125 0.001819 0.122883 -0.031672 -0.000000 0.000000 0.000000 0.000000 0.000000 0.000000 0.000000 
-17.898379 16.189049 -1.501945 1.320582 84.106066 34.015926 -12.806382 3.191516 -2.294933 -1.921209 7.942704 -7.830420 -0.612933 1.404187 23.326446 1.595014 4.452461 26.149677 1.625900 0.000000 -88.485501 7.835424 1.777181 3.253110 1.969441 10.880722 -66.751983 1.281409 -2.534404 37.665480 -0.232109 0.473934 -2.400728 -0.363300 0.000000 -28.757700 12.858018 -2.501943 2.360294 1.944539 -2.914491 -2.243218 -5.979411 -3.058328 1.796017 9.363804 -1.780858 0.854868 -3.939541 -0.345253 1.949262 0.000000 0.000000 0.000000 -10.573978 -1.958529 0.819541 -76.210276 -11.876124 21.964157 -2.109792 -28.028296 -0.009678 5.315384 -0.545235 -0.030907 -0.067463 0.122003 0.000000 0.000000 0.000000 0.000000 0.000000 0.000000 0.000000 16.719851 -5.724953 0.013505 55.672648 -5.882586 -19.568017 3.768769 13.225443 0.008526 -0.208160 3.950432 -0.011390 0.122138 -0.029693 -0.000000 0.000000 0.000000 0.000000 0.000000 0.000000 0.000000 
-17.755609 16.197172 -1.449098 -2.485965 84.615031 30.247709 -12.755304 3.059710 -2.335963 -1.140236 7.914174 -8.291652 -0.540715 1.451275 24.541419 1.675392 4.361463 26.998841 1.577200 0.000000 -84.061100 7.829599 1.782350 3.068804 2.582158 11.077514 -66.331190 1.297412 -2.592967 38.688584 -0.385168 0.070913 -3.984929 -0.367900 -0.000000 -27.925200 13.361784 -2.618439 2.620580 2.039585 -3.018257 -2.180195 -6.069864 -3.165748 1.797383 9.868799 -1.265703 1.168220 -3.994981 -0.349031 2.023312 0.000000 0.000000 0.000000 -10.240625 -2.387111 0.852166 -76.392961 -11.979416 21.085366 -2.068457 -26.888797 -0.010385 5.650216 -0.462016 -0.028545 -0.065134 0.120017 0.000000 0.000000 0.000000 0.000000 0.000000 0.000000 0.000000 17.364254 -5.480085 -0.023070 55.246858 -4.439761 -19.906508 3.718081 12.683092 0.008070 -0.648135 3.873884 -0.026098 0.121141 -0.028071 -0.000000 0.000000 0.000000 0.000000 0.000000 0.000000 0.000000 
-17.616611 16.210744 -1.394840 -5.688039 85.210470 27.073712 -12.707058 2.921915 -2.365940 -0.452824 7.831699 -8.877332 -0.477953 1.499279 25.875550 1.758095 4.549683 27.533273 1.669400 -0.000000 -79.003000 7.828538 1.784924 2.892459 3.100592 11.146541 -65.791311 1.314855 -2.623801 39.416898 -0.548270 -0.401045 -5.375624 -0.365300 -0.000000 -27.311600 13.777739 -2.749290 2.840415 2.119006 -3.137254 -2.121502 -6.153638 -3.287896 1.810201 10.411615 -0.809181 1.501918 -4.048687 -0.352740 2.102987 0.000000 0.000000 0.000000 -9.812377 -2.894904 0.878050 -76.578529 -12.146934 20.354001 -2.033833 -25.723999 -0.010982 5.929475 -0.345150 -0.023779 -0.063083 0.118077 0.000000 0.000000 0.000000 0.000000 0.000000 0.000000 0.000000 18.035841 -5.315552 -0.067112 54.884697 -2.930621 -20.306652 3.655498 12.232506 0.007723 -1.153058 3.860003 -0.043103 0.119905 -0.026988 -0.000000 0.000000 0.000000 0.000000 0.000000 0.000000 0.000000 
-17.480911 16.229304 -1.339623 -8.382146 85.883698 24.411678 -12.659843 2.781898 -2.383360 0.130168 7.703102 -9.603282 -0.424411 1.550090 27.318697 1.842559 5.064273 27.702363 1.931000 -0.000000 -73.595000 7.834583 1.786598 2.730209 3.528200 11.102901 -65.176602 1.329262 -2.631304 39.884283 -0.716084 -0.930197 -6.529958 -0.357900 0.000000 -26.891700 14.117770 -2.882173 3.011064 2.185191 -3.261834 -2.068848 -6.228327 -3.415139 1.835930 10.973744 -0.407324 1.843543 -4.098529 -0.356185 2.185073 0.000000 0.000000 0.000000 -9.322169 -3.429572 0.897734 -76.752813 -12.411607 19.851541 -2.010012 -24.552181 -0.011436 6.126171 -0.188202 -0.016111 -0.061500 0.116316 0.000000 0.000000 0.000000 0.000000 0.000000 0.000000 0.000000 18.711332 -5.211596 -0.118127 54.598228 -1.388755 -20.774268 3.582174 11.898360 0.007495 -1.710273 3.922142 -0.062905 0.118386 -0.026588 -0.000000 0.000000 0.000000 0.000000 0.000000 0.000000 0.000000 
